<svg width="512" height="512" viewBox="0 0 512 512" fill="none" xmlns="http://www.w3.org/2000/svg">
<path fill-rule="evenodd" clip-rule="evenodd" d="M256 32L320 96L192 96L256 32Z" fill="white"/>
<path fill-rule="evenodd" clip-rule="evenodd" d="M256 256L320 96L192 96L256 256Z" fill="white"/>
<path fill-rule="evenodd" clip-rule="evenodd" d="M256 32L320 0V96L256 32Z" fill="white"/>
<path fill-rule="evenodd" clip-rule="evenodd" d="M256 32L192 0V96L256 32Z" fill="white"/>
<path fill-rule="evenodd" clip-rule="evenodd" d="M32 256L96 192L96 320L32 256Z" fill="white"/>
<path fill-rule="evenodd" clip-rule="evenodd" d="M256 256L96 192L96 320L256 256Z" fill="white"/>
<path fill-rule="evenodd" clip-rule="evenodd" d="M32 256L0 192H96L32 256Z" fill="white"/>
<path fill-rule="evenodd" clip-rule="evenodd" d="M32 256L0 320H96L32 256Z" fill="white"/>
<path fill-rule="evenodd" clip-rule="evenodd" d="M256 480L192 416H320L256 480Z" fill="white"/>
<path fill-rule="evenodd" clip-rule="evenodd" d="M256 256L192 416H320L256 256Z" fill="white"/>
<path fill-rule="evenodd" clip-rule="evenodd" d="M256 480L192 512V416L256 480Z" fill="white"/>
<path fill-rule="evenodd" clip-rule="evenodd" d="M256 480L320 512V416L256 480Z" fill="white"/>
<path fill-rule="evenodd" clip-rule="evenodd" d="M480 256L416 320V192L480 256Z" fill="white"/>
<path fill-rule="evenodd" clip-rule="evenodd" d="M256 256L416 320V192L256 256Z" fill="white"/>
<path fill-rule="evenodd" clip-rule="evenodd" d="M480 256L512 320H416L480 256Z" fill="white"/>
<path fill-rule="evenodd" clip-rule="evenodd" d="M480 256L512 192H416L480 256Z" fill="white"/>
</svg>
